<svg width="56" height="50" viewBox="0 0 56 50" fill="none" xmlns="http://www.w3.org/2000/svg">
<path d="M20.8 0C26.3165 0 31.6071 1.95663 35.5078 5.43945C39.4086 8.92226 41.6 13.646 41.6 18.5714C41.6 23.1714 39.712 27.4 36.608 30.6571L37.472 31.4286H40L56 45.7143L51.2 50L35.2 35.7143V33.4571L34.336 32.6857C30.688 35.4571 25.952 37.1429 20.8 37.1429C15.2835 37.1429 9.99294 35.1862 6.09218 31.7034C2.19142 28.2206 0 23.4969 0 18.5714C0 13.646 2.19142 8.92226 6.09218 5.43945C9.99294 1.95663 15.2835 0 20.8 0ZM20.8 5.71429C12.8 5.71429 6.4 11.4286 6.4 18.5714C6.4 25.7143 12.8 31.4286 20.8 31.4286C28.8 31.4286 35.2 25.7143 35.2 18.5714C35.2 11.4286 28.8 5.71429 20.8 5.71429Z" fill="black"/>
</svg>
